<svg id="Home" xmlns="http://www.w3.org/2000/svg" viewBox="0 0 28.05 22"><defs><style>.cls-1{fill:#f7bc5c;}</style></defs><title>javascript</title><g id="Fullscreen"><g id="Skills"><path class="cls-1" d="M640.75,5320l-0.61-.06a12.24,12.24,0,0,1-4.26-1.14l-0.24-.13,0.95-3.94,0.63,0.31a10.73,10.73,0,0,0,3.64,1,5.69,5.69,0,0,0,2.52-.25,2.1,2.1,0,0,0,1.43-1.47,2,2,0,0,0-.59-2.1,5.31,5.31,0,0,0-1.64-1c-0.68-.29-1.38-0.54-2.06-0.83a10.32,10.32,0,0,1-3-1.88,5.25,5.25,0,0,1-1.74-3,5.75,5.75,0,0,1,2.33-5.85,7.9,7.9,0,0,1,3.63-1.45c0.38-.06.76-0.08,1.13-0.12l0.14,0h1.26l0.24,0a12.81,12.81,0,0,1,3,.49c0.45,0.13.89,0.3,1.34,0.46l-1.2,4-0.25-.12a8.15,8.15,0,0,0-4.68-.9,3,3,0,0,0-1.56.62,1.79,1.79,0,0,0-.28,2.53,3.19,3.19,0,0,0,.92.74,19.14,19.14,0,0,0,2.58,1.17,11.33,11.33,0,0,1,3.19,1.78,5.73,5.73,0,0,1,2.15,3.35,5.57,5.57,0,0,1,.29.79v0.89c0,0.13-.22.26-0.23,0.39a6,6,0,0,1-2.55,4.2,8.84,8.84,0,0,1-4.26,1.5l-1,.09h-1.23Z" transform="translate(-621.95 -5298)"/><path class="cls-1" d="M622,5319.4a7.17,7.17,0,0,1,0-1c0.13-.92.16-1.85,0.28-2.77a0.1,0.1,0,0,0,0,0c0.35,0.08.68,0.18,1,.24a6.41,6.41,0,0,0,2.09.06,2.36,2.36,0,0,0,2-1.74,7.16,7.16,0,0,0,.49-2.2c0-4.43.18-8.85,0.18-13.28V5299h5v-0.34c0,4.45-.18,8.9-0.19,13.35a11.17,11.17,0,0,1-.7,3.81,5.91,5.91,0,0,1-4.53,3.91c-0.57.13-1.18,0.16-1.76,0.24l-0.16,0h-1.11l-0.12,0c-0.46-.05-0.75-0.08-1.2-0.16a3.28,3.28,0,0,1-1.22-.33v-0.09Z" transform="translate(-621.95 -5298)"/><path class="cls-1" d="M622,5319.49a3.28,3.28,0,0,0,1.22.33c0.46,0.08.83,0.11,1.29,0.16a0.19,0.19,0,0,1,0,0H622v-0.51Z" transform="translate(-621.95 -5298)"/></g></g></svg>