<svg id="Home" xmlns="http://www.w3.org/2000/svg" viewBox="0 0 53 29"><defs><style>.cls-1{fill:#2196f3;opacity:0.28;}.cls-1,.cls-2{stroke:#fff;stroke-linecap:round;stroke-miterlimit:10;stroke-width:5px;}.cls-2{fill:none;}</style></defs><title>mission_data</title><g id="Fullscreen"><g id="Mission"><line class="cls-1" x1="2.5" y1="2.5" x2="50.5" y2="2.5"/><line class="cls-1" x1="2.5" y1="14.5" x2="50.5" y2="14.5"/><line class="cls-1" x1="2.5" y1="26.5" x2="50.5" y2="26.5"/><path class="cls-2" d="M1295,4171.5h10.81c8.17,0,7.62,12,15.25,12H1343" transform="translate(-1292.5 -4169)"/><path class="cls-2" d="M1295,4195.5h19.7c8.17,0,7.62-12,15.25-12h13" transform="translate(-1292.5 -4169)"/><line class="cls-2" x1="12.5" y1="14.5" x2="30.5" y2="14.5"/><line class="cls-2" x1="6.5" y1="14.5" x2="5.5" y2="14.5"/><path class="cls-2" d="M1318.22,4180.6" transform="translate(-1292.5 -4169)"/><path class="cls-2" d="M1294.67,4193" transform="translate(-1292.5 -4169)"/><path class="cls-2" d="M1321.49,4178.47" transform="translate(-1292.5 -4169)"/><path class="cls-2" d="M1311.69,4178.47" transform="translate(-1292.5 -4169)"/></g></g></svg>