<svg id="Contact" xmlns="http://www.w3.org/2000/svg" viewBox="0 0 10.67 19.74"><defs><style>.cls-1{fill:#fff;}</style></defs><title>social_facebook</title><path class="cls-1" d="M4806.34,895.07h-2.56a4.5,4.5,0,0,0-4.73,4.86v2.24h-2.57a0.4,0.4,0,0,0-.4.4v3.25a0.4,0.4,0,0,0,.4.4H4799v8.19a0.4,0.4,0,0,0,.4.4h3.36a0.4,0.4,0,0,0,.4-0.4v-8.19h3a0.4,0.4,0,0,0,.4-0.4v-3.25a0.4,0.4,0,0,0-.4-0.4h-3v-1.9c0-.91.22-1.38,1.41-1.38h1.72a0.4,0.4,0,0,0,.4-0.4v-3A0.4,0.4,0,0,0,4806.34,895.07Z" transform="translate(-4796.07 -895.07)"/></svg>