<svg id="Contact" xmlns="http://www.w3.org/2000/svg" xmlns:xlink="http://www.w3.org/1999/xlink" viewBox="0 0 28.09 28.09"><defs><style>.cls-1{fill:none;}.cls-2{clip-path:url(#clip-path);}.cls-3{fill:#fff;}</style><clipPath id="clip-path" transform="translate(-4788.44 -998.3)"><circle class="cls-1" cx="4802.49" cy="1012.35" r="11.58"/></clipPath></defs><title>social_github</title><g class="cls-2"><path class="cls-3" d="M4802.49,998.3a14,14,0,1,0,14,14A14,14,0,0,0,4802.49,998.3Zm8.34,22.39a11.76,11.76,0,0,1-3.75,2.53q-0.54.23-1.09,0.4v-2.11a2.75,2.75,0,0,0-1.14-2.44,12.29,12.29,0,0,0,1.31-.19,9.89,9.89,0,0,0,1.26-.36,6.25,6.25,0,0,0,1.19-.56,5,5,0,0,0,1-.84,4.89,4.89,0,0,0,.82-1.17,6.39,6.39,0,0,0,.52-1.56,9.77,9.77,0,0,0,.19-2,5.14,5.14,0,0,0-1.39-3.62,4.79,4.79,0,0,0-.14-3.58l-0.34,0a3.39,3.39,0,0,0-1.28.3,10,10,0,0,0-2.08,1.12,12.62,12.62,0,0,0-3.39-.45,12.37,12.37,0,0,0-3.37.45,11.75,11.75,0,0,0-1.38-.82,7.1,7.1,0,0,0-1-.44,3.58,3.58,0,0,0-.73-0.14,2.58,2.58,0,0,0-.43,0l-0.14,0a4.79,4.79,0,0,0-.14,3.58,5.14,5.14,0,0,0-1.39,3.62,9.77,9.77,0,0,0,.19,2,6.39,6.39,0,0,0,.52,1.56,4.9,4.9,0,0,0,.82,1.17,5,5,0,0,0,1,.84,6.26,6.26,0,0,0,1.19.56,9.89,9.89,0,0,0,1.26.36,12.29,12.29,0,0,0,1.31.19,2.75,2.75,0,0,0-1.12,2.44v2.15A11.81,11.81,0,1,1,4810.83,1020.69Z" transform="translate(-4788.44 -998.3)"/></g></svg>