<svg id="Contact" xmlns="http://www.w3.org/2000/svg" viewBox="0 0 18.18 17.37"><defs><style>.cls-1{fill:#fff;}</style></defs><title>social_indesign</title><path id="LinkedIn" class="cls-1" d="M4811.14,958.76v6.72h-3.9v-6.27c0-1.57-.56-2.65-2-2.65a2.13,2.13,0,0,0-2,1.43,2.67,2.67,0,0,0-.13.95v6.54h-3.9s0.05-10.62,0-11.72h3.9v1.66l0,0h0v0a3.87,3.87,0,0,1,3.51-1.94C4809.22,953.49,4811.14,955.16,4811.14,958.76Zm-16-10.65a2,2,0,1,0-.05,4.05h0A2,2,0,1,0,4795.17,948.11Zm-2,17.37h3.9V953.76h-3.9v11.72Z" transform="translate(-4792.96 -948.11)"/></svg>