<svg id="Contact" xmlns="http://www.w3.org/2000/svg" viewBox="0 0 18.02 22.92"><defs><style>.cls-1{fill:#fff;}</style></defs><title>social_stack</title><path class="cls-1" d="M4795.46,1074h7.95a0.64,0.64,0,0,0,.64-0.64v-0.89a0.64,0.64,0,0,0-.64-0.64h-7.95a0.64,0.64,0,0,0-.64.64v0.89A0.64,0.64,0,0,0,4795.46,1074Z" transform="translate(-4792.01 -1054.1)"/><path class="cls-1" d="M4792,1075.77c0,1.22,0,1.23.13,1.23h14.2c0.75,0,.75,0,0.75-0.13V1068a0.64,0.64,0,0,0-.64-0.64H4806a0.64,0.64,0,0,0-.64.64v6.82a0.38,0.38,0,0,1-.38.38h-10.75a0.38,0.38,0,0,1-.38-0.38V1068a0.64,0.64,0,0,0-.64-0.64h-0.51a0.64,0.64,0,0,0-.64.64c0,1,0,3.18,0,5.15C4792,1074.17,4792,1075.09,4792,1075.77Z" transform="translate(-4792.01 -1054.1)"/><path class="cls-1" d="M4795.52,1070.73l7.93,0.73h0.06a0.63,0.63,0,0,0,.63-0.58l0.08-.88a0.64,0.64,0,0,0-.58-0.7l-7.91-.73a0.64,0.64,0,0,0-.7.58l-0.08.88A0.64,0.64,0,0,0,4795.52,1070.73Z" transform="translate(-4792.01 -1054.1)"/><path class="cls-1" d="M4807.88,1062.84a0.64,0.64,0,0,0,.63.53h0.11l0.88-.15a0.64,0.64,0,0,0,.52-0.74l-1.36-7.84a0.64,0.64,0,0,0-.74-0.52l-0.88.15a0.64,0.64,0,0,0-.52.74Z" transform="translate(-4792.01 -1054.1)"/><path class="cls-1" d="M4797.53,1062.23l6.85,4a0.64,0.64,0,0,0,.88-0.22l0.46-.77a0.64,0.64,0,0,0-.22-0.88l-6.85-4a0.66,0.66,0,0,0-.88.22l-0.45.77A0.64,0.64,0,0,0,4797.53,1062.23Z" transform="translate(-4792.01 -1054.1)"/><path class="cls-1" d="M4805.78,1064.16a0.64,0.64,0,0,0,.89.17l0.73-.5a0.64,0.64,0,0,0,.17-0.89l-4.47-6.58a0.65,0.65,0,0,0-.89-0.17l-0.74.51a0.64,0.64,0,0,0-.17.89Z" transform="translate(-4792.01 -1054.1)"/><path class="cls-1" d="M4796,1066.75l7.68,2.06,0.17,0a0.64,0.64,0,0,0,.62-0.47l0.23-.86a0.64,0.64,0,0,0-.45-0.78l-7.68-2.06a0.65,0.65,0,0,0-.78.45l-0.23.86A0.64,0.64,0,0,0,4796,1066.75Z" transform="translate(-4792.01 -1054.1)"/></svg>