<svg id="Grid" xmlns="http://www.w3.org/2000/svg" viewBox="0 0 96.82 33.53"><defs><style>.cls-1{fill:#006591;}</style></defs><title>skills_handle</title><path class="cls-1" d="M-227.46,4678c0-1.57,0-3.15,0-4.72a1.13,1.13,0,0,0-1.42-1.38c-1.63.08-3.14,0-5.14,0v-1.47c0-3.32.17-6.64,0-10-0.1-2.47,2.37-5.34,5-5.32,0.4,0,.81,0,1.21,0q20.86,0,41.74,0c2.11,0,4,.45,5.15,2.34a5.68,5.68,0,0,1,1,2.63c0.11,3.87,0,7.74,0,11.82-2.09,0-4,.08-6,0-1.22-.07-1.5.4-1.45,1.5,0.07,1.51,0,3,0,4.61h28.08c0-1.62,0-3.15,0-4.67,0-1-.2-1.49-1.39-1.44-2.44.1-4.75,0-7.19,0a8.74,8.74,0,0,1-1.24-.08v-1.55c0-3.2-.07-6.4-0.16-9.6a20.1,20.1,0,0,0-.64-4.62,16.1,16.1,0,0,0-15.11-11.58c-14.56,0-29.13,0-43.69,0a15.87,15.87,0,0,0-15.64,13.25,90.07,90.07,0,0,0-.37,10.45c0,1.23,0,2.83,0,3.83H-256v6h28.54Z" transform="translate(256 -4644.47)"/></svg>