<svg id="Home" xmlns="http://www.w3.org/2000/svg" viewBox="0 0 71.09 41.44"><defs><style>.brand-white-1{fill:#fff;}</style></defs><title>vn_brand_white</title><g id="Fullscreen"><g id="Header"><path class="brand-white-1" d="M521.08,2942.75c-0.12,1.2-.22,2.32-0.36,3.44a0.58,0.58,0,0,1-.34.41c-2.19.52-4.38,1-6.57,1.52-0.8.18-1.59,0.39-2.4,0.53a4.75,4.75,0,0,1-1.41.06q-2.9-.37-5.79-0.84a0.84,0.84,0,0,1-.46-0.49c-0.61-1.5-1.19-3-1.79-4.53-0.92-2.32-1.86-4.64-2.79-7-0.52-1.29-1-2.58-1.51-3.89a0.51,0.51,0,0,0-.69-0.38c-1.54.27-3.1,0.46-4.62,0.8-1.75.39-3.47,0.88-5.19,1.38a10.35,10.35,0,0,0-1.51.71l0,0.22a9.17,9.17,0,0,0,1.42.52c1.67,0.32,3.34.64,5,.84,0.9,0.11.49,0.7,0.57,1.1s-0.3.45-.6,0.42c-1.52-.17-3-0.29-4.55-0.55s-2.79-.62-4.18-0.95c-0.2,0-.39-0.16-0.59-0.23a1.37,1.37,0,0,1-1-1.49c0-1.6,0-1.66,1.45-2.33a27.85,27.85,0,0,1,6.29-1.76c2.24-.42,4.49-0.73,6.74-1.1a2.1,2.1,0,0,0,.3-0.1l-1.55-3.89c-0.76-1.89-1.52-3.79-2.27-5.68-0.46-1.17-.46-1.19.69-1.67,2.15-.89,4.31-1.77,6.47-2.64a0.93,0.93,0,0,1,.56,0c1.71,0.49,3.43,1,5.13,1.5a1.6,1.6,0,0,1,.73.63c0.32,0.46.57,1,.92,1.61,0.2-1.64.38-3.1,0.55-4.56,0.09-.79.17-1.59,0.28-2.38a0.73,0.73,0,0,1,.51-0.66c2.37-1,4.75-1.94,7.07-3a3.34,3.34,0,0,1,2.41-.16c1.72,0.43,3.46.8,5.18,1.23a0.81,0.81,0,0,1,.51.43c0.74,2.32,1.45,4.66,2.18,7a13.51,13.51,0,0,0,.78,2l0.19-2.87c0-.67.07-1.33,0.14-2a0.56,0.56,0,0,1,.3-0.39q2.33-.88,4.68-1.7a1.09,1.09,0,0,1,.6,0c2,0.5,3.92,1,5.88,1.52a0.41,0.41,0,0,1,.33.55c-0.08.91-.19,1.82-0.29,2.73q-0.42,3.9-.84,7.79c-0.08.76-.19,1.52-0.28,2.28,0,0.2,0,.41,0,0.63,1.33,0.08,2.61.13,3.88,0.23a44.74,44.74,0,0,1,9.69,1.45l0.11,0c1.63,0.57,2,1.18,1.69,2.9a1.23,1.23,0,0,1-.65.73,21.44,21.44,0,0,1-3.18,1.27c-2,.55-4.13,1-6.2,1.44a0.58,0.58,0,0,1-.84-0.59c0-.63.07-0.77,0.67-0.89a25.68,25.68,0,0,0,5.67-1.61c0.17-.08.33-0.19,0.5-0.28l0.2-.11,0-.21c-0.73-.24-1.45-0.54-2.2-0.71a45.2,45.2,0,0,0-7.65-1c-0.46,0-.91-0.09-1.36-0.14a0.54,0.54,0,0,0-.7.58c-0.19,1.92-.42,3.83-0.62,5.74q-0.42,4-.83,7.91-0.17,1.62-.33,3.24a0.71,0.71,0,0,1-.57.67c-1.57.46-3.12,1-4.71,1.39a8.66,8.66,0,0,1-2.61-.1c-1.23-.12-2.46-0.32-3.69-0.46a0.62,0.62,0,0,1-.59-0.51c-0.57-1.8-1.16-3.59-1.75-5.38A0.79,0.79,0,0,0,521.08,2942.75Zm15.33-13-5.3-.21a0.43,0.43,0,0,0-.48.49c-0.08.83-.19,1.65-0.3,2.62a2.78,2.78,0,0,1-.28-0.45c-0.23-.71-0.49-1.41-0.65-2.14a0.6,0.6,0,0,0-.76-0.53c-0.67,0-1.34,0-2,0-1.2,0-2.4.1-3.65,0.16,0,0.14.11,0.37,0.19,0.6l3.19,9.27q1.1,3.2,2.2,6.4a0.68,0.68,0,0,0,.72.58c0.61,0,1.21.12,1.82,0.19l3.39,0.36ZM517,2908.58l-2.1,19,13.5-.6c0-.1,0-0.25-0.09-0.39-1.59-5.09-3.23-10.16-4.75-15.27-0.32-1.06-.76-1.68-1.89-1.71a1.46,1.46,0,0,1-.28-0.07Zm4.65,21.07-0.63,0c-1.92.08-3.84,0.19-5.75,0.24a0.6,0.6,0,0,0-.69.67c-0.12,1.41-.26,2.81-0.42,4.22-0.36,3.22-.74,6.44-1.12,9.74l7.08,1.27Zm11-17.12a3.39,3.39,0,0,0-.11.45c-0.12,1.14-.22,2.28-0.34,3.42q-0.57,5.15-1.17,10.3a0.38,0.38,0,0,0,.42.52l5.2,0.07c0-.23.08-0.45,0.11-0.67q0.67-6.12,1.34-12.24a0.42,0.42,0,0,0-.36-0.54ZM501,2916.21l5.05,12.2a2.05,2.05,0,0,0,.12-0.31c0.21-2,.4-3.91.64-5.85a3.94,3.94,0,0,0-.44-2.7,5.08,5.08,0,0,1-.54-1.2,1.56,1.56,0,0,0-1.27-1.13C503.44,2916.94,502.3,2916.58,501,2916.21Z" transform="translate(-481.74 -2908)"/></g></g></svg>
