<svg id="Home" xmlns="http://www.w3.org/2000/svg" xmlns:xlink="http://www.w3.org/1999/xlink" viewBox="0 0 38.87 35.27"><defs><style>.cls-1{fill:url(#New_Gradient_Swatch_6);}</style><linearGradient id="New_Gradient_Swatch_6" x1="525.53" y1="6579.45" x2="564.4" y2="6579.45" gradientUnits="userSpaceOnUse"><stop offset="0.19" stop-color="#02939e"/><stop offset="1" stop-color="#2196f3"/></linearGradient></defs><title>branding_icon</title><g id="Fullscreen"><path class="cls-1" d="M547.69,6562.2a3.54,3.54,0,0,0-1.49,2.95l-17.53,21.24a2.24,2.24,0,0,0-2.11,0c-1.39.84-1.36,3.28,0.08,5.67s3.58,3.56,5,2.72a2.24,2.24,0,0,0,1-1.87l5.11-1.06v1.86a3.38,3.38,0,0,0,3.93,3.33l6.38-1a3.8,3.8,0,0,0,1.35-.5,3.86,3.86,0,0,0,1.86-3.59l-0.22-2.82,8.55-1.78a3.54,3.54,0,0,0,3.31.05c3.18-1.92,1-9.43-2.7-15.53S550.87,6560.29,547.69,6562.2Zm0.29,30a0.6,0.6,0,0,1-.48.61l-6.38,1-0.14-.12v-2.53l6.81-1.42Zm13.2-7.6c-0.63.38-4.1-2.06-8-8.52s-4.43-10.67-3.81-11,4.1,2.06,8,8.52S561.81,6584.18,561.18,6584.56Z" transform="translate(-525.53 -6561.81)"/></g></svg>