<svg id="Home" xmlns="http://www.w3.org/2000/svg" xmlns:xlink="http://www.w3.org/1999/xlink" viewBox="0 0 1280 1688"><defs><style>.cls-1{fill:url(#New_Gradient_Swatch_6);}</style><linearGradient id="New_Gradient_Swatch_6" x1="1697" y1="6800" x2="2977" y2="6800" gradientUnits="userSpaceOnUse"><stop offset="0.19" stop-color="#02939e"/><stop offset="1" stop-color="#2196f3"/></linearGradient></defs><title>design_icon</title><g id="Fullscreen"><g id="Services"><path class="cls-1" d="M2977,7054.78V7031.6c0-6.56-.45-13.09-0.45-19.65q0.05-392.09,0-784.17c0-16-1.68-31.85-6.33-47.32-12.55-41.73-36.73-74.49-74.13-97.21-22.56-13.7-47.37-20.36-73.27-24.21-41.43-6.15-82.8-12.78-124.21-19q-51.69-7.81-103.42-15.37-68.11-9.93-136.22-19.77-60.52-8.76-121-17.67c-44-6.5-87.9-13.22-131.86-19.78-27.46-4.1-54.72-9.66-82.56-11-1.09-.1-2.25.62-3.24-0.38h-6.72c-1.27,1-2.73,0-4.09,0H2106c-2.89,0-5.72.51-8.59,0.66a246.57,246.57,0,0,0-65.57,12.06c-17.62,5.9-33.83,15.14-50,24.2-13.38,7.5-27,14.78-39.3,23.89-37.78,27.9-75.11,56.38-111.5,86.1-18.3,14.95-36.57,30-54,45.88-24.66,22.51-46.37,47.64-63.75,76.24-7.34,12.08-15.26,24.13-15.65,39.09,0,0.6-.59,1.28-0.59,1.76v768c1,13.06,8.12,23.65,15.42,34,1.38,2,2.77,3.91,4.21,5.83,9.57,12.81,19,25.77,30.57,36.87a358.73,358.73,0,0,0,34.54,28.91c23.05,17.17,47.35,32.17,74.39,42.33,17,6.4,34.41,11,52.86,9.89,1.63-.1,4-0.8,4.73,1.2s-1.44,3-2.62,4.2c-6.38,6.51-12.55,13.23-18.92,19.72-19.27,19.63-38.73,39.07-57.78,58.91-5.54,5.77-11,11.63-17,16.9-5,4.41-6.67,9.4-6.64,16,0.2,52.63.11,105.27,0.11,157.9,0,1.76-.08,3.53.1,5.28,0.94,9.43,5.16,16.66,14,20.8,6.19,2.9,12.86,3.65,19.5,4.73,39.29,6.41,78.61,12.57,117.93,18.82q82.65,13.13,165.29,26.33,52.57,8.39,105.13,16.82,76.72,12.27,153.43,24.53,58.25,9.34,116.49,18.7c51,8.15,101.93,16.57,153,24.35,39.15,6,78,14,117.57,16.87a28.61,28.61,0,0,0,3.71.26h1c6.71-2,10-8,14.3-12.82,9.88-11.1,19.54-22.27,29.31-33.46,10-11.44,20-22.77,30-34.19,12.51-14.31,25.06-28.57,37.52-42.91,10.06-11.58,20.12-23.13,30.32-34.58a14.59,14.59,0,0,0,3.62-12.81c-0.93-5.74-.73-11.48-0.73-17.23q0-88.06,0-176.12c0-2.56.07-5.12-.1-7.68-0.33-4.73-1.94-6.58-6.73-7.1-24.74-2.7-48.72-8.87-72.6-15.56-4.61-1.29-4.83-2.07-1.56-5.55,7.67-8.15,14.9-16.69,22-25.33,16.65-20.27,32-41.57,47.31-62.81a730.9,730.9,0,0,1,55.48-68.46c7.5-8.11,11-17.62,11-28.72v-3.88ZM2732.33,7494.5c-0.15,13-.37,25.91-0.51,38.87H2732v61.92c0,0.32.13,0.64,0.11,1a1.23,1.23,0,0,1-1.54,1.31c-5.38-.79-10.73-1.59-16.09-2.45q-22.73-3.66-45.43-7.37-22.25-3.63-44.48-7.28c-14.68-2.39-29.36-4.72-44-7.12q-24.85-4.06-49.69-8.17-22-3.6-44-7.17t-44-7.24l-37.39-6.11-44.49-7.28-43.54-7.12L2272.9,7523l-44-7.18q-22.24-3.64-44.48-7.31-21.77-3.56-43.55-7.08l-37.87-6.16L2058.5,7488q-22.24-3.64-44.49-7.27-22-3.58-44-7.14l-44.49-7.25-44-7.13c-3.94-.64-7.9-1.22-11.82-2-5.42-1.06-6.42-2.23-6.42-7.7,0-5.76.18-11.51,0.32-17.27,0.57-23,.38-46.07.34-69.11,0-12.16-.11-24.32-0.16-36.48,0-.8,0-1.6.06-2.4,0.1-1.24.54-1.65,1.88-1.49q4.76,0.6,9.5,1.35,29.36,4.7,58.72,9.44c20.51,3.34,41,6.79,61.51,10.15,18.62,3.05,37.24,6,55.86,9.08,18.46,3,36.9,6.12,55.36,9.16,16.41,2.7,32.82,5.33,49.23,8q22,3.6,44,7.25l37.39,6.11,38.34,6.26,44,7.21,44.48,7.29,43.55,7.1,44.49,7.28,44,7.15,44,7.18,44,7.17,45,7.33q18.94,3.08,37.88,6.12,22.25,3.6,44.5,7.2c4.58,0.74,9.16,1.44,13.71,2.33,6.37,1.25,7.37,2.45,7.37,9C2732.6,7479.47,2732.41,7487,2732.33,7494.5Zm14.48-989.76c-0.43,11-.55,22.07-0.86,33.1-1.13,40-.69,80-0.72,120q0,34.56.38,69.11,0.54,40.07.34,80.14c0,22.88.21,45.76,0,68.64-0.55,49.27-.6,98.55-0.53,147.82,0,31.19.88,62.38,1.22,93.57,0.32,28.77-8.19,54.52-28.14,75.86-13.91,14.87-31,24.55-50.52,29.94a121.29,121.29,0,0,1-49.45,3.18c-14.41-2-28.77-4.34-43.15-6.53l-40.3-6.15-40.3-6.15-41.72-6.38-40.77-6.26q-17.07-2.61-34.14-5.19l-34.62-5.24-41.25-6.29-40.78-6.2-34.61-5.3-41.72-6.38-40.31-6.12-40.78-6.2-34.61-5.31-41.24-6.32q-20.15-3.09-40.3-6.17c-13.75-2.11-27.49-4.27-41.24-6.37-8.06-1.23-16.14-2.33-24.1-4.16-34-7.8-63.84-23.31-88.43-48.3-18.56-18.86-31.46-41-37.83-66.81a121.31,121.31,0,0,1-3.57-25.12c-0.46-13.76-.26-27.51-0.25-41.27q0-50.16.18-100.31c0.06-27,.18-54.08.2-81.11q0.08-109.68.08-219.35,0-34.08-.18-68.15-0.39-60.47-.93-120.93a115.31,115.31,0,0,1,8.24-44.53c12.37-30.53,34.61-50.54,65.87-60.49a124.35,124.35,0,0,1,46.44-5.29c9.44,0.63,18.72,2.3,28,3.7,13.44,2,26.86,4.17,40.29,6.24l40.29,6.21,40.76,6.29,40.3,6.17,34.6,5.33,41.24,6.32,34.14,5.2,41.25,6.31,34.61,5.25,34.14,5.19q17.3,2.64,34.6,5.31,20.39,3.1,40.78,6.18,21.1,3.2,42.2,6.43c13.59,2.09,27.17,4.21,40.76,6.3,13.43,2.06,26.87,4.08,40.3,6.15,13.11,2,26.21,4.14,39.33,6.16,13.91,2.14,27.78,4.58,41.74,6.23,56.22,6.64,102.4,42.15,125.95,83.89A144.84,144.84,0,0,1,2746.8,6504.74Z" transform="translate(-1697 -5956)"/></g></g></svg>