<svg id="Home" xmlns="http://www.w3.org/2000/svg" xmlns:xlink="http://www.w3.org/1999/xlink" viewBox="0 0 36 39"><defs><style>.cls-1{fill:url(#New_Gradient_Swatch_6);}.cls-2{fill:url(#New_Gradient_Swatch_6-2);}</style><linearGradient id="New_Gradient_Swatch_6" x1="528" y1="6413.5" x2="545" y2="6413.5" gradientUnits="userSpaceOnUse"><stop offset="0.19" stop-color="#02939e"/><stop offset="1" stop-color="#2196f3"/></linearGradient><linearGradient id="New_Gradient_Swatch_6-2" x1="547" y1="6418" x2="564" y2="6418" xlink:href="#New_Gradient_Swatch_6"/></defs><title>server_icon</title><g id="Fullscreen"><path class="cls-1" d="M528,6397.71v31.44c0,0.78.27,1.84,1.05,1.84h14.31a2,2,0,0,0,1.64-1.84V6397.7a1.89,1.89,0,0,0-1.62-1.7H529.05C528.27,6396,528,6396.93,528,6397.71Zm8.2,27.06a2.5,2.5,0,1,1,2.5-2.5A2.5,2.5,0,0,1,536.2,6424.77Zm5.18-18.77H531v-1h10v1.29Zm0-3H531v-1h10v1.17Z" transform="translate(-528 -6396)"/><path class="cls-2" d="M547,6402.14v31.44a1.41,1.41,0,0,0,1.4,1.42h14.31a1.32,1.32,0,0,0,1.29-1.42v-31.46a1.08,1.08,0,0,0-1.27-1.12H548.4A1.19,1.19,0,0,0,547,6402.14Zm8.55,27.06a2.5,2.5,0,1,1,2.5-2.5A2.5,2.5,0,0,1,555.55,6429.2ZM561,6411H550v-2h11v2Zm0-3H550v-1h11v1Z" transform="translate(-528 -6396)"/></g></svg>