<?xml version="1.0" standalone="no"?>
<!DOCTYPE svg PUBLIC "-//W3C//DTD SVG 20010904//EN"
 "http://www.w3.org/TR/2001/REC-SVG-20010904/DTD/svg10.dtd">
<svg version="1.0" xmlns="http://www.w3.org/2000/svg"
 width="300.000000pt" height="300.000000pt" viewBox="0 0 300.000000 300.000000"
 preserveAspectRatio="xMidYMid meet">
<metadata>
Created by potrace 1.11, written by Peter Selinger 2001-2013
</metadata>
<g transform="translate(0.000000,300.000000) scale(0.100000,-0.100000)"
fill="#000000" stroke="none">
<path d="M1540 2853 c-8 -3 -66 -25 -127 -49 -62 -24 -170 -65 -240 -90 -71
-25 -136 -53 -145 -62 -12 -12 -25 -66 -43 -177 -14 -88 -28 -171 -31 -185
l-5 -24 -20 32 c-22 34 -45 44 -249 113 -63 22 -129 39 -147 39 -36 0 -457
-147 -498 -174 -14 -10 -25 -26 -25 -39 0 -12 83 -258 184 -547 101 -289 245
-704 321 -923 102 -295 144 -402 159 -412 12 -8 113 -31 225 -51 l205 -38 289
53 c158 29 304 57 323 63 37 10 54 37 54 88 0 63 18 33 50 -86 18 -68 39 -129
47 -136 16 -13 330 -67 395 -68 64 0 358 76 381 98 14 15 32 112 87 483 38
255 80 536 94 624 83 525 156 1033 151 1052 -3 13 -17 25 -37 32 -217 67 -370
111 -391 111 -37 0 -332 -97 -346 -114 -7 -8 -17 -58 -23 -112 l-11 -98 -62
233 c-34 127 -68 239 -76 247 -20 19 -393 124 -439 123 -19 0 -42 -3 -50 -6z
m302 -152 c42 -11 86 -25 97 -31 25 -13 6 50 242 -812 106 -390 196 -708 199
-708 6 0 103 596 176 1080 19 129 36 236 38 237 2 3 278 -77 284 -82 6 -6
-302 -2002 -310 -2011 -4 -3 -75 4 -157 17 l-151 22 -9 31 c-6 17 -42 137 -80
266 -38 129 -109 359 -156 510 -47 151 -98 322 -112 379 -19 77 -29 100 -34
85 -4 -10 -49 -284 -99 -609 -50 -324 -92 -590 -93 -591 -1 -1 -88 19 -192 44
l-191 45 48 306 c26 168 61 401 78 516 50 345 201 1339 205 1352 3 9 21 7 72
-7 37 -10 103 -28 145 -39z m-1104 -422 l94 -31 44 -92 44 -91 -26 -170 c-14
-94 -28 -177 -31 -185 -5 -13 -6 -13 -11 0 -3 8 -53 147 -112 308 -59 160
-105 292 -101 292 3 0 48 -14 99 -31z"/>
</g>
</svg>
