<svg id="Home" xmlns="http://www.w3.org/2000/svg" xmlns:xlink="http://www.w3.org/1999/xlink" viewBox="0 0 31.04 35.73"><defs><style>.cls-1{fill:url(#New_Gradient_Swatch_6);}.cls-2{fill:url(#New_Gradient_Swatch_6-2);}.cls-3{fill:url(#New_Gradient_Swatch_6-3);}.cls-4{fill:url(#New_Gradient_Swatch_6-4);}</style><linearGradient id="New_Gradient_Swatch_6" x1="1256" y1="6414.38" x2="1287" y2="6414.38" gradientUnits="userSpaceOnUse"><stop offset="0.19" stop-color="#02939e"/><stop offset="1" stop-color="#2196f3"/></linearGradient><linearGradient id="New_Gradient_Swatch_6-2" y1="6406.33" y2="6406.33" xlink:href="#New_Gradient_Swatch_6"/><linearGradient id="New_Gradient_Swatch_6-3" y1="6397.77" y2="6397.77" xlink:href="#New_Gradient_Swatch_6"/><linearGradient id="New_Gradient_Swatch_6-4" x1="1255.96" y1="6423" y2="6423" xlink:href="#New_Gradient_Swatch_6"/></defs><title>database_icon</title><g id="Fullscreen"><g id="Services"><path class="cls-1" d="M1272.76,6412.85l-1.6,0-1.6,0a35.34,35.34,0,0,1-10.59-1.67,16.4,16.4,0,0,1-3-1.44v5.77c2,1.82,7.76,3.51,15.5,3.51s13.5-1.68,15.5-3.51v-5.77a19.8,19.8,0,0,1-3.33,1.45A38,38,0,0,1,1272.76,6412.85Z" transform="translate(-1255.96 -6392.55)"/><path class="cls-2" d="M1256,6401.69v5.77c1,1.69,6.68,3.26,13.59,3.48h3.49c6.91-.22,11.92-1.79,13.92-3.48v-5.77c-3,2.05-9.46,3.14-15.5,3.14S1259,6403.74,1256,6401.69Z" transform="translate(-1255.96 -6392.55)"/><path class="cls-3" d="M1286.67,6397.79c-0.69-2.64-6.11-5.24-15.39-5.24s-14.52,2.59-15.23,5.22a0.58,0.58,0,0,0-.06.3v1.42c2,1.82,7.71,3.5,15.5,3.5s13.5-1.68,15.5-3.5v-1.42A1.39,1.39,0,0,0,1286.67,6397.79Z" transform="translate(-1255.96 -6392.55)"/><path class="cls-4" d="M1256,6417.72v5a0.59,0.59,0,0,0,0,.28c0.72,3,7.16,5.25,15.23,5.25S1286,6426,1286.7,6423a1.24,1.24,0,0,0,.3-0.3v-5c-3,1.79-7.92,3.19-15.5,3.19S1258,6419.51,1256,6417.72Z" transform="translate(-1255.96 -6392.55)"/></g></g></svg>