<svg id="Home" xmlns="http://www.w3.org/2000/svg" xmlns:xlink="http://www.w3.org/1999/xlink" viewBox="0 0 600 474"><defs><style>.cls-1{fill:url(#New_Gradient_Swatch_6);}</style><linearGradient id="New_Gradient_Swatch_6" x1="3364" y1="10972" x2="3964" y2="10972" gradientUnits="userSpaceOnUse"><stop offset="0.19" stop-color="#02939e"/><stop offset="1" stop-color="#2196f3"/></linearGradient></defs><title>ui_ux_icon</title><path class="cls-1" d="M3941.68,10735H3448.6c-12.8,0-23.6,10.09-23.6,22.89V10804h-37.08c-12.8,0-23.92,10.45-23.92,23.25v358.22c0,12.8,11.13,23.53,23.92,23.53H3881c12.8,0,23-10.73,23-23.53V11140h37.68c12.8,0,22.32-11.09,22.32-23.89v-358.22C3964,10745.09,3954.47,10735,3941.68,10735Zm-313.46,437.7-42-89.23L3485.76,11184l-44.7-44.7L3542,11038.37l-90.75-42.67,282.88-105.88Zm305.78-77.06c0,8.11-5.75,15.37-13.85,15.37H3904v-283.75a23.09,23.09,0,0,0-23-23.25H3455v-26.16c0-8.11,7-14.84,15.13-14.84h450c8.11,0,13.85,6.74,13.85,14.84v317.79Z" transform="translate(-3364 -10735)"/></svg>